HIERARCHY
ROOT Hips
{
	OFFSET 0.000000 0.000000 0.000000 
	CHANNELS 6 Xposition Yposition Zposition Yrotation Zrotation Xrotation 
	JOINT Lumbar
	{
		OFFSET 0.000000 0.000000 0.000000 
		CHANNELS 3 Zrotation Xrotation Yrotation
		JOINT Neck
		{
			OFFSET 0.000000 0.445665 0.000000 
			CHANNELS 3 Zrotation Xrotation Yrotation
			End Site
			{
				OFFSET 0.000000 0.227535 0.000000 
			}
		}
		JOINT RightShoulder
		{
			OFFSET 0.019635 0.377685 0.194865 
			CHANNELS 3 Zrotation Xrotation Yrotation
			JOINT RightElbow
			{
				OFFSET 0.000000 -0.243375 0.000000 
				CHANNELS 2 Zrotation Yrotation
				JOINT RightWrist
				{
					OFFSET 0.000000 -0.264825 0.000000 
					CHANNELS 2 Zrotation Xrotation
					End Site
					{
						OFFSET 0.006600 -0.176220 0.000990 
					}
				}
			}
		}
		JOINT LeftShoulder
		{
			OFFSET 0.019635 0.377685 -0.194865 
			CHANNELS 3 Zrotation Xrotation Yrotation
			JOINT LeftElbow
			{
				OFFSET 0.000000 -0.243375 0.000000 
				CHANNELS 2 Zrotation Yrotation
				JOINT LeftWrist
				{
					OFFSET 0.000000 -0.264825 0.000000 
					CHANNELS 2 Zrotation Xrotation
					End Site
					{
						OFFSET 0.006600 -0.176220 -0.000990 
					}
				}
			}
		}
	}
	JOINT RightHip
	{
		OFFSET 0.052140 -0.069960 0.075570 
		CHANNELS 3 Zrotation Xrotation Yrotation
		JOINT RightKnee
		{
			OFFSET 0.000000 -0.402270 0.000000 
			CHANNELS 1 Zrotation
			JOINT RightAnkle
			{
				OFFSET 0.000000 -0.404085 0.000000 
				CHANNELS 3 Zrotation Xrotation Yrotation
				End Site
				{
					OFFSET 0.204105 -0.089430 0.008415 
				}
			}
		}
	}
	JOINT LeftHip
	{
		OFFSET 0.052140 -0.069960 -0.075570 
		CHANNELS 3 Zrotation Xrotation Yrotation
		JOINT LeftKnee
		{
			OFFSET 0.000000 -0.402270 0.000000 
			CHANNELS 1 Zrotation
			JOINT LeftAnkle
			{
				OFFSET 0.000000 -0.404085 0.000000 
				CHANNELS 3 Zrotation Xrotation Yrotation
				End Site
				{
					OFFSET 0.204105 -0.089430 -0.008415 
				}
			}
		}
	}
}
MOTION
Frames: 22
Frame Time: 0.02
0.00028 2e-05 -0.00027 -180.71539 -35.62162 -3.76346 43.04287 2.6877 -3.24939 -11.58403 -1.39382 -0.36567 88.69282 -95.47312 -90.00259 5.32875 71.83196 -12.78497 2.31305 83.73757 101.44195 -64.16882 5.33116 -101.82989 10.92962 -1.32009 40.19586 -1.98333 -4.03296 -22.39317 -6.90526 -3.36708 -2.40371 43.64668 7.29367 1.00929 -27.82223 -6.62043 3.17053 2.26241
0.00037 3e-05 -0.00033 -180.60636 -35.38148 -3.74722 42.8058 2.68165 -3.26908 -11.59365 -1.37908 -0.37477 88.79989 -95.47373 -90.00259 5.32875 71.25693 -12.80847 2.1988 83.7899 101.41355 -64.16882 5.33129 -101.81027 10.94756 -1.28853 39.89953 -1.97748 -4.06666 -22.3491 -6.90757 -3.37542 -2.40844 43.38343 7.29816 1.01681 -27.78858 -6.61969 3.1581 2.25662
0.00045 4e-05 -0.00039 -180.49765 -35.14227 -3.73102 42.56973 2.67563 -3.28869 -11.6033 -1.36437 -0.38385 88.90652 -95.47431 -90.00259 5.32875 70.6837 -12.83194 2.08493 83.8421 101.3852 -64.16882 5.33143 -101.79068 10.96551 -1.25703 39.60432 -1.97167 -4.10042 -22.30522 -6.90986 -3.38372 -2.41315 43.1212 7.30269 1.0245 -27.75507 -6.61894 3.14567 2.25083
0.00054 6e-05 -0.00045 -180.38895 -34.90292 -3.71483 42.33345 2.6696 -3.30831 -11.61291 -1.34967 -0.39293 89.01324 -95.47492 -90.00259 5.32875 70.11043 -12.85537 1.97104 83.89427 101.35689 -64.16882 5.33156 -101.77112 10.98341 -1.22556 39.30895 -1.96584 -4.13403 -22.2613 -6.91216 -3.39203 -2.41787 42.85882 7.30718 1.03203 -27.72154 -6.6182 3.13327 2.24505
0.00062 7e-05 -0.00052 -180.27995 -34.66251 -3.69858 42.09602 2.66355 -3.32805 -11.62244 -1.33497 -0.40203 89.12047 -95.47557 -90.00259 5.32875 69.53538 -12.87881 1.85677 83.94657 101.32854 -64.16883 5.33169 -101.75154 11.00126 -1.19405 39.01232 -1.95993 -4.16753 -22.21717 -6.91447 -3.40038 -2.42262 42.59527 7.31162 1.03929 -27.68784 -6.61746 3.12087 2.23928
0.0007 8e-05 -0.00058 -180.17185 -34.4258 -3.6825 41.8628 2.65759 -3.34738 -11.63236 -1.32022 -0.41105 89.22583 -95.476 -90.0026 5.32875 68.96602 -12.90234 1.74375 83.99859 101.30018 -64.16883 5.33182 -101.73195 11.01943 -1.16259 38.72008 -1.95435 -4.20186 -22.1738 -6.91672 -3.40856 -2.42726 42.33582 7.31632 1.04788 -27.65473 -6.61671 3.10838 2.23345
0.00079 9e-05 -0.00064 -180.06208 -34.18207 -3.66611 41.62152 2.65145 -3.36748 -11.6415 -1.30559 -0.42023 89.33477 -95.47687 -90.00258 5.32875 68.38582 -12.92567 1.62835 84.05107 101.27188 -64.16883 5.33196 -101.71239 11.03695 -1.13103 38.41951 -1.94812 -4.23443 -22.12898 -6.9191 -3.41709 -2.4321 42.06857 7.32049 1.05382 -27.62051 -6.61597 3.0961 2.22775
0.00088 0.0001 -0.0007 -179.95379 -33.94454 -3.64999 41.38738 2.64547 -3.38691 -11.65134 -1.29084 -0.42926 89.44056 -95.47735 -90.00259 5.32875 67.81562 -12.94916 1.51512 84.10319 101.24354 -64.16883 5.33209 -101.69281 11.05505 -1.0996 38.1263 -1.94251 -4.26873 -22.08545 -6.92135 -3.42528 -2.43675 41.80822 7.32514 1.06215 -27.58726 -6.61522 3.08362 2.22193
0.00095 0.00011 -0.00076 -179.84751 -33.71558 -3.63425 41.16305 2.63973 -3.40538 -11.66214 -1.27594 -0.43812 89.54193 -95.47731 -90.00263 5.32875 67.25741 -12.97298 1.40456 84.15464 101.21505 -64.16883 5.33222 -101.67319 11.07394 -1.06817 37.84325 -1.93755 -4.30473 -22.04368 -6.92347 -3.43312 -2.44119 41.5574 7.33045 1.07364 -27.55536 -6.61446 3.07089 2.21594
0.00106 0.00013 -0.00083 -179.73025 -33.44029 -3.61649 40.88556 2.63274 -3.42893 -11.66773 -1.26193 -0.44798 89.66698 -95.48012 -90.00248 5.32875 66.62947 -12.99529 1.27873 84.20924 101.18712 -64.16884 5.33237 -101.65375 11.08854 -1.03626 37.50525 -1.92852 -4.32971 -21.99231 -6.92641 -3.44317 -2.44694 41.25503 7.33219 1.06767 -27.51618 -6.61379 3.0596 2.21086
0.00111 0.00013 -0.00088 -179.6358 -33.26085 -3.60287 40.71813 2.62831 -3.44205 -11.68411 -1.24604 -0.45573 89.7432 -95.47699 -90.00273 5.32875 66.14917 -13.02054 1.18507 84.25767 101.15821 -64.16884 5.33247 -101.63395 11.11204 -1.0057 37.28095 -1.92828 -4.37871 -21.96087 -6.9276 -3.44842 -2.44986 41.05929 7.3413 1.09808 -27.49208 -6.61291 3.04527 2.20389
0.00095 0.00013 -0.00087 -179.60741 -33.36308 -3.60171 40.87348 2.63145 -3.42389 -11.73221 -1.22492 -0.45759 89.67494 -95.45692 -90.00422 5.32871 66.0736 -13.05604 1.18075 84.28505 101.12502 -64.16884 5.33243 -101.61301 11.16152 -0.97608 37.39068 -1.95089 -4.48784 -21.98752 -6.92413 -3.44144 -2.44545 41.17713 7.37213 1.23299 -27.51219 -6.61156 3.02233 2.19162
0.00073 0.00013 -0.00084 -179.60135 -33.55842 -3.60452 41.13582 2.63706 -3.39572 -11.79076 -1.20195 -0.45734 89.55966 -95.43102 -90.00609 5.32866 66.1463 -13.0941 1.2085 84.30692 101.09113 -64.16885 5.33235 -101.59177 11.21966 -0.94829 37.61088 -1.9825 -4.62191 -22.0336 -6.9189 -3.42948 -2.43814 41.3985 7.41006 1.40345 -27.54697 -6.61 2.9964 2.1775
0.00055 0.00013 -0.00081 -179.58269 -33.69861 -3.60475 41.33527 2.64114 -3.37393 -11.84317 -1.17989 -0.45811 89.47267 -95.40818 -90.00767 5.32861 66.15152 -13.12958 1.22092 84.33417 101.05861 -64.16885 5.33228 -101.57076 11.27285 -0.92152 37.76565 -2.0109 -4.7487 -22.06851 -6.91437 -3.41911 -2.43184 41.55833 7.4438 1.55479 -27.57314 -6.60846 2.97198 2.1643
0.00033 0.00012 -0.00079 -179.57411 -33.89193 -3.60817 41.59392 2.64688 -3.34454 -11.90152 -1.15751 -0.45865 89.35609 -95.3835 -90.0097 5.32856 66.15774 -13.17102 1.23675 84.34969 101.02167 -64.16885 5.33222 -101.54926 11.33038 -0.8871 37.98334 -2.03585 -4.8595 -22.11317 -6.91021 -3.41143 -2.42672 41.77805 7.4817 1.71927 -27.60733 -6.60718 2.94682 2.1507
0.00017 0.00012 -0.00076 -179.55021 -33.99822 -3.60603 41.75618 2.64984 -3.32841 -11.94993 -1.13538 -0.45917 89.29033 -95.3614 -90.01092 5.32853 66.19663 -13.20067 1.25287 84.38779 100.99373 -64.16886 5.33214 -101.52883 11.38089 -0.86886 38.09813 -2.06984 -5.0082 -22.14236 -6.90491 -3.39717 -2.41858 41.89941 7.51251 1.8641 -27.62853 -6.60535 2.92261 2.13759
0.00019 0.0001 -0.00069 -179.47512 -33.82765 -3.58634 41.61256 2.64385 -3.35309 -11.9687 -1.11409 -0.46025 89.37377 -95.34688 -90.00969 5.32856 66.29225 -13.19683 1.26359 84.49435 100.9911 -64.16886 5.332 -101.51042 11.41028 -0.89632 37.88482 -2.12907 -5.2666 -22.12193 -6.89649 -3.36403 -2.40192 41.70776 7.52307 1.95197 -27.6083 -6.60183 2.9006 2.12554
0.00027 9e-05 -0.0006 -179.38452 -33.56895 -3.56115 41.37086 2.63512 -3.3911 -11.97704 -1.09318 -0.46138 89.51042 -95.33533 -90.00764 5.32861 66.41504 -13.18107 1.27321 84.62296 100.9975 -64.16887 5.33183 -101.49331 11.43224 -0.9397 37.56745 -2.19661 -5.5601 -22.08568 -6.88707 -3.32477 -2.38248 41.41666 7.52609 2.01784 -27.57486 -6.59781 2.87984 2.11418
0.00033 7e-05 -0.00052 -179.30318 -33.35943 -3.53925 41.18272 2.62809 -3.4219 -11.98995 -1.07227 -0.46244 89.62454 -95.32306 -90.00604 5.32866 66.52351 -13.17096 1.28223 84.73834 100.99959 -64.16889 5.33166 -101.47622 11.45737 -0.97483 37.30859 -2.25874 -5.83035 -22.05802 -6.8784 -3.28957 -2.3649 41.1814 7.53183 2.08962 -27.54871 -6.59417 2.85925 2.10302
0.00038 5e-05 -0.00044 -179.21305 -33.1141 -3.5141 40.95985 2.61922 -3.45736 -12.00396 -1.05052 -0.46363 89.73028 -95.30798 -90.00415 5.32871 66.64554 -13.15997 1.29694 84.86699 101.00252 -64.16885 5.33154 -101.45642 11.48369 -1.01435 37.00551 -2.32815 -6.13272 -22.02502 -6.86844 -3.24886 -2.34472 40.9042 7.54064 2.17926 -27.51757 -6.58987 2.83546 2.08969
0.00046 4e-05 -0.00036 -179.13753 -32.92189 -3.4944 40.7853 2.61351 -3.48626 -12.01306 -1.03068 -0.46458 89.86644 -95.29947 -90.00266 5.32875 66.74377 -13.14794 1.2992 84.97339 101.00585 -64.16892 5.33132 -101.44275 11.50563 -1.04843 36.76926 -2.38418 -6.37568 -21.99927 -6.86093 -3.21818 -2.32931 40.69015 7.54134 2.2268 -27.49358 -6.58682 2.81863 2.08101
0.00061 5e-05 -0.00029 -179.10377 -32.89136 -3.49081 40.76165 2.61712 -3.49497 -12.01123 -1.01559 -0.46484 90.07628 -95.30908 -90.00245 5.32875 66.76973 -13.13599 1.26671 85.01258 101.00824 -64.16931 5.33083 -101.44425 11.51746 -1.06397 36.73478 -2.40177 -6.45029 -21.99595 -6.86046 -3.21721 -2.32786 40.66748 7.51983 2.15645 -27.4917 -6.58735 2.8212 2.08553
